<?xml version="1.0" encoding="UTF-8"?><!DOCTYPE svg PUBLIC "-//W3C//DTD SVG 1.1//EN"
        "http://www.w3.org/Graphics/SVG/1.1/DTD/svg11.dtd">
<svg xmlns="http://www.w3.org/2000/svg"
     version="1.1" id="mdi-weather-night" width="24" height="24" viewBox="0 0 24 24">
    <path d="M17.75 4.09 15.22 6.03 16.13 9.09 13.5 7.28 10.87 9.09 11.78 6.03 9.25 4.09 12.44 4 13.5 1 14.56 4 17.75 4.09M21.25 11 19.61 12.25 20.2 14.23 18.5 13.06 16.8 14.23 17.39 12.25 15.75 11 17.81 10.95 18.5 9 19.19 10.95 21.25 11M18.97 15.95C21.458 15.42 22.321 14.772 20.16 17.8C19.84 18.25 19.5 18.67 19.08 19.07C15.17 23 8.84 23 4.94 19.07C1.03 15.17 1.03 8.83 4.94 4.93C5.34 4.53 5.76 4.17 6.21 3.85C8.881 1.835 8.542 2.667 8.06 5.04C7.79 7.9 8.75 10.87 10.95 13.06C13.14 15.26 16.1 16.22 18.97 15.95Z"/>
</svg>
